<svg width="37" height="36" viewBox="0 0 37 36" xmlns="http://www.w3.org/2000/svg"><title>Twitter</title><path d="M18.094 35.814c9.967 0 18.047-8.01 18.047-17.893C36.14 8.04 28.06.03 18.094.03S.047 8.039.047 17.92s8.08 17.893 18.047 17.893zm-.107-19.749l.037.62-.62-.076c-2.26-.291-4.235-1.277-5.91-2.932l-.82-.821-.211.606c-.447 1.352-.162 2.78.77 3.74.496.531.384.607-.472.291-.298-.101-.56-.177-.584-.139-.087.089.211 1.238.447 1.693.323.632.981 1.251 1.701 1.618l.609.29-.72.013c-.696 0-.72.012-.646.278.248.821 1.229 1.693 2.322 2.072l.77.265-.671.405c-.993.58-2.16.91-3.328.935-.558.012-1.018.063-1.018.1 0 .127 1.515.835 2.397 1.113 2.644.821 5.786.467 8.145-.935 1.676-.998 3.352-2.982 4.134-4.903.423-1.023.845-2.893.845-3.79 0-.582.037-.657.732-1.352.41-.405.795-.847.87-.973.124-.24.111-.24-.522-.026-1.055.38-1.204.329-.683-.24.385-.404.844-1.137.844-1.352 0-.038-.186.026-.397.14-.223.126-.72.315-1.093.429l-.67.215-.608-.417c-.336-.228-.807-.48-1.056-.556-.633-.177-1.602-.152-2.173.05-1.552.569-2.533 2.035-2.42 3.64z" fill="#9B9DA0" fill-rule="evenodd" opacity=".505"/></svg>