<svg width="102" height="114" viewBox="0 0 102 114" xmlns="http://www.w3.org/2000/svg"><title>icon-verified</title><path d="M77.28 77.906c-2.423.031-4.686 1.062-6.353 2.806-.09.092-.183.178-.269.274l1.787 1.649a6.796 6.796 0 0 1 1.227-1.085 6.494 6.494 0 0 1 3.635-1.18c2.774-.035 5.094 1.671 6.01 4.124.285.76.439 1.589.424 2.462l2.406.042a9.409 9.409 0 0 0-.128-1.68c-.702-4.27-4.315-7.467-8.74-7.412zM57.38 22.49l-6.49-.966-2.902-6.019a1.19 1.19 0 0 0-2.157 0l-2.902 6.02-6.49.965c-.987.146-1.381 1.388-.666 2.1l4.695 4.686-1.108 6.615c-.168 1.006.863 1.773 1.746 1.298l5.805-3.124 5.805 3.124c.883.475 1.914-.292 1.746-1.298l-1.108-6.615 4.696-4.685c.71-.713.316-1.955-.67-2.101zm-11.032 9.093l-4.207 2.264.803-4.794a1.248 1.248 0 0 0-.346-1.09l-3.404-3.395 4.703-.7c.392-.057.73-.31.906-.673l2.103-4.361 2.103 4.361c.176.364.514.616.906.674l4.703.7-3.403 3.394c-.284.283-.413.691-.347 1.09l.804 4.794-4.208-2.264a1.173 1.173 0 0 0-1.116 0zm47.73 5.102H72.828l.817 2.463h20.431c2.658 0 4.815 2.205 4.815 4.915V93.36c0 2.676-2.092 4.84-4.697 4.905-.038 0-.076.012-.114.012v2.463c.04 0 .08-.005.119-.007 3.933-.065 7.098-3.338 7.098-7.372V44.065c0-4.071-3.232-7.38-7.22-7.38zm-22.2 28.591c0-2.036-1.614-3.682-3.607-3.682h-1.749l-1.088 2.197c.207.107.435.173.67.215.136.024.274.05.418.05h1.75c.665 0 1.2.545 1.2 1.22v2.6c0 .673-.533 1.219-1.195 1.219H62.35l.01.905-.77 1.558h6.686c1.991 0 3.602-1.648 3.602-3.681v-2.6zm10.056-8.706h7.226c1.991 0 3.606-1.648 3.606-3.696v-2.46c0-2.04-1.615-3.694-3.606-3.694h-7.226c-1.991 0-3.606 1.648-3.606 3.696v2.46c0 2.04 1.615 3.694 3.606 3.694zm-1.2-6.154c0-.686.536-1.234 1.2-1.234h7.226c.662 0 1.2.552 1.2 1.234v2.46c0 .684-.536 1.232-1.2 1.232h-7.226c-.662 0-1.2-.552-1.2-1.234v-2.458zm1.2 20.931h7.226c1.991 0 3.606-1.649 3.606-3.697v-2.459c0-2.04-1.615-3.695-3.606-3.695h-7.226c-1.991 0-3.606 1.649-3.606 3.697v2.459c0 2.04 1.615 3.695 3.606 3.695zm-1.2-6.154c0-.686.536-1.234 1.2-1.234h7.226c.662 0 1.2.551 1.2 1.234v2.459c0 .684-.536 1.232-1.2 1.232h-7.226c-.662 0-1.2-.551-1.2-1.234v-2.457zm13.347 33.083c.04 0 .076-.011.114-.012l-.004-2.153c-.008-4.626-3.459-9.356-7.796-10.68l-.375-.114c.09.544.138 1.104.129 1.68l-2.407-.042a6.695 6.695 0 0 0-.423-2.462l-9.646-2.944c-.445.309-.86.669-1.227 1.085l-1.786-1.65c.085-.095.179-.181.268-.274l-8.568-2.615v-6.537h-.77L62.362 70v-1.315c.179-.163.385-.357.614-.589.781-.784 1.56-1.704 2.286-2.756.3-.434.578-.881.843-1.334a2.357 2.357 0 0 1-.67-.215l1.088-2.197h.771a17.576 17.576 0 0 0 1.28-5.884c.193-.057.407-.127.52-.165.925-.318 1.711-.666 2.49-1.154 2.22-1.393 3.68-3.555 4.04-6.673.578-2.937.393-6.271-.52-8.571h-1.457l-.817-2.463h.397a2.578 2.578 0 0 0-.837-.3c-.015-.08-.03-.17-.041-.291-.065-.664-.041-1.6.07-3.396l.093-1.49c.322-5.17.307-8.565-.297-12.27-.354-2.168-.902-4.185-1.68-6.05C66.682 3.636 57.947 0 47.556 0 36.725 0 29.04 2.989 23.552 12.757c-1.399 2.491-2.293 5.437-2.752 8.74-.595 4.276-.437 8.818.184 13.182.102.723.211 1.376.322 1.978a4.915 4.915 0 0 0-1.086.607c-2.31 1.72-3.002 5.194-1.451 10.655.476 1.68.996 3.088 1.555 4.247 1.519 3.146 3.355 4.404 5.098 4.258.12.383.244.78.387 1.21a61.484 61.484 0 0 0 1.966 5.198c1.362 3.128 2.775 5.478 4.292 6.834v8.17L7.59 86.71C3.354 88.245-.01 93.13 0 97.728l.013 6.913c.01 4.758 3.791 8.617 8.439 8.617h77.343c4.651 0 8.42-3.864 8.41-8.622l-.006-3.904c-.04.002-.079.007-.12.007l.002-2.463zm-8.286 12.52H8.452c-3.32 0-6.026-2.762-6.033-6.16l-.013-6.913c-.007-3.553 2.716-7.505 5.988-8.692l25.277-9.164.801-.29V68.453l-.502-.369c-1.262-.927-2.651-3.16-3.999-6.254a59.294 59.294 0 0 1-1.885-4.985 64.317 64.317 0 0 1-.7-2.257l-.459-1.646-1.379.969c-.796.305-1.786-.179-3.069-2.836-.493-1.02-.962-2.296-1.403-3.844-1.294-4.558-.815-6.954.557-7.977.446-.331.89-.452 1.117-.46l1.468-.049-.337-1.463c-.03-.131-.086-.395-.159-.775a46.315 46.315 0 0 1-.36-2.183c-.59-4.15-.74-8.471-.183-12.48.42-3.014 1.224-5.665 2.457-7.86C30.604 5.143 37.493 2.464 47.552 2.464c9.533 0 17.383 3.268 20.765 11.39.698 1.676 1.197 3.506 1.52 5.49.565 3.47.58 6.713.27 11.708l-.095 1.49c-.119 1.938-.145 2.951-.062 3.796.143 1.466.688 2.456 1.981 2.456.388 0 .946.865 1.289 2.564.37 1.836.378 4.172.025 5.973-.286 2.432-1.308 3.947-2.925 4.96-.888.557-3.436 1.43-3.64 1.602a1.304 1.304 0 0 0-.488 1.032c0 3.355-1.084 6.365-2.9 8.994a17.574 17.574 0 0 1-2.007 2.42c-.402.404-.706.671-.864.794l-.472.37V79.93l.86.262 24.893 7.599c3.318 1.013 6.071 4.785 6.077 8.324l.016 8.523c.01 3.399-2.68 6.157-6 6.157z" fill="#FFF" fill-rule="evenodd"/></svg>