<svg width="82" height="124" viewBox="0 0 82 124" xmlns="http://www.w3.org/2000/svg"><title>icon-nopaper</title><path d="M16.893 107.414c0-.68-.539-1.231-1.203-1.231l-6.92-.001c-3.153 0-5.715-2.625-5.714-5.855l.035-72.8c1.784 2.073 4.4 3.388 7.326 3.388h38.27c.664 0 1.203-.551 1.203-1.231s-.54-1.231-1.203-1.231h-38.27c-4.047 0-7.323-3.319-7.323-7.407s3.275-7.407 7.323-7.407h45.847c.664 0 1.203-.551 1.203-1.231s-.539-1.232-1.203-1.232H10.417c-5.37 0-9.729 4.416-9.729 9.869l-.038 79.28c-.003 4.59 3.638 8.318 8.12 8.32h6.92c.664 0 1.203-.55 1.203-1.23zm63.514-96.239H67.421c-.665 0-1.204.552-1.204 1.232 0 .68.54 1.231 1.204 1.231h12.986c.664 0 1.203-.552 1.203-1.231 0-.68-.538-1.232-1.203-1.232zM63.632 22.383h13.092c.664 0 1.203-.551 1.203-1.231s-.539-1.232-1.203-1.232H63.632c-.664 0-1.203.552-1.203 1.232 0 .68.538 1.231 1.203 1.231zm16.4 14.688c0-4.764-3.764-8.62-8.422-8.62H59.842c-.664 0-1.203.552-1.203 1.232 0 .68.539 1.231 1.203 1.231H71.61c3.329 0 6.016 2.752 6.016 6.157v19.914l.09 43.056c.007 3.399-2.678 6.154-5.997 6.153l-44.873-.009c-.664 0-1.203.552-1.203 1.232 0 .68.54 1.231 1.203 1.231l44.873.009c4.65.001 8.414-3.86 8.403-8.621l-.09-43.054V37.071zm-68.657-17.15c-.664 0-1.203.551-1.203 1.23 0 .68.54 1.232 1.203 1.232h41.1c.665 0 1.204-.551 1.204-1.231s-.54-1.232-1.204-1.232h-41.1zM67.012.103a1.192 1.192 0 0 0-1.585.633L13.428 122.154c-.267.623.01 1.35.618 1.622a1.192 1.192 0 0 0 1.585-.633L67.63 1.726a1.242 1.242 0 0 0-.618-1.622z" fill="#FFF" fill-rule="evenodd"/></svg>