<svg width="101" height="107" viewBox="0 0 101 107" xmlns="http://www.w3.org/2000/svg"><title>icon-free</title><path d="M100.162 23.737L84.082 6.5a1.188 1.188 0 0 0-.87-.38H54.04c-.32 0-.628.13-.854.363l-3.915 4.035a106.158 106.158 0 0 0-3.642-2.082C31.49.741 18.684-2.439 16.34 2.075c-2.307 4.44 7.075 13.301 20.837 20.912L3.378 57.833c-3.28 3.38-3.26 8.84.046 12.191l33.615 34.086a8.434 8.434 0 0 0 11.992.047L99.673 53.65c.227-.227.358-.537.363-.862l.458-28.181a1.24 1.24 0 0 0-.332-.87zm-81.7-20.506C19.78.698 31.746 3.67 44.5 10.611c1.028.559 2.022 1.14 3.012 1.722l-8.567 8.833C26.219 14.231 17.149 5.762 18.463 3.231zm28.889 99.161a6.068 6.068 0 0 1-8.62-.032L5.118 68.275c-2.361-2.393-2.375-6.293-.032-8.707l34.323-35.385c10.052 5.274 19.248 8.18 24.232 7.53.075 5.376 4.386 9.71 9.696 9.71 5.355 0 9.7-4.408 9.7-9.85 0-5.442-4.345-9.85-9.7-9.85-4.585 0-8.42 3.234-9.432 7.577-3.263.849-12.542-1.732-22.717-6.952L54.542 8.58h28.156L98.08 25.072l-.443 27.169-50.287 50.151zm19.81-72.66c.38-.73.441-1.57.257-2.466 1.325-1.86 3.478-3.077 5.918-3.077 4.032 0 7.295 3.31 7.295 7.387 0 4.076-3.264 7.386-7.295 7.386-4.032 0-7.297-3.31-7.297-7.386 0-.236.013-.47.035-.7.46-.307.842-.674 1.087-1.143zM49.67 65.314c0-8.101-5.039-14.776-11.429-14.776-6.39 0-11.43 6.675-11.43 14.776 0 8.102 5.04 14.777 11.43 14.777s11.43-6.675 11.43-14.777zm8.543-4.925a6.325 6.325 0 0 1-.12-1.232h5.999v-2.462h-5.499c.929-2.175 3.049-3.695 5.515-3.695a5.91 5.91 0 0 1 4.073 1.626l1.63-1.812a8.287 8.287 0 0 0-5.703-2.276c-3.815 0-7.037 2.596-8.073 6.157h-2.153v2.462H55.688c0 .418.029.83.085 1.232H53.883v2.462h2.615c1.352 2.913 4.252 4.926 7.611 4.926 2.34 0 4.456-.976 5.982-2.552l-1.709-1.734a5.92 5.92 0 0 1-4.273 1.823c-1.968 0-3.715-.967-4.813-2.463h4.797v-2.462h-5.879zM29.22 65.313c0-6.86 4.117-12.314 9.023-12.314s9.024 5.454 9.024 12.314-4.118 12.314-9.024 12.314c-4.906 0-9.023-5.454-9.023-12.314z" fill="#FFF" fill-rule="evenodd"/></svg>